<svg xmlns="http://www.w3.org/2000/svg" xmlns:xlink="http://www.w3.org/1999/xlink" width="186" height="24.651" viewBox="0 0 186 24.651">
  <defs>
    <clipPath id="clip-path">
      <rect id="長方形_302" data-name="長方形 302" width="186" height="24.651" fill="none"/>
    </clipPath>
  </defs>
  <g id="グループ_45" data-name="グループ 45" transform="translate(0 0)">
    <g id="グループ_43" data-name="グループ 43" transform="translate(0 0)" clip-path="url(#clip-path)">
      <path id="パス_99" data-name="パス 99" d="M8.432,3.914c-2.051,0-3.76.95-3.76,2.887,0,4.71,11.243,3.3,11.243,11.319,0,3.988-3.191,6.989-8.053,6.989A12.694,12.694,0,0,1,0,22.526l1.6-2.887a11.139,11.139,0,0,0,6.229,2.317c2.849,0,4.368-1.671,4.368-3.836C12.193,12.764.874,14.283.874,6.877.874,3.078,3.988.8,8.243.8A10.591,10.591,0,0,1,14.7,2.964l-.266,3.418a9.431,9.431,0,0,0-6-2.469" transform="translate(0 -0.533)"/>
      <path id="パス_100" data-name="パス 100" d="M68,24.995c-6.761,0-12.155-4.406-12.155-12.117C55.841,5.205,61.235.8,68,.8S80.151,5.205,80.151,12.916c0,7.672-5.394,12.079-12.155,12.079M68,3.952c-4.52,0-8.243,3.3-8.243,8.926,0,5.736,3.723,8.926,8.243,8.926s8.243-3.19,8.243-8.888c0-5.66-3.723-8.964-8.243-8.964" transform="translate(-37.267 -0.533)"/>
      <path id="パス_101" data-name="パス 101" d="M150.6,25.682c-6.685,0-9.686-4.444-9.686-11.623V1.828h3.8V14.059c0,5.356,1.557,8.432,5.85,8.432,4.33,0,5.926-3.038,5.926-8.356V1.828h3.8V14.134c0,7.141-2.963,11.547-9.686,11.547" transform="translate(-94.044 -1.22)"/>
      <path id="パス_102" data-name="パス 102" d="M267.814,17.468V1.827h-3.8V13.545Z" transform="translate(-176.2 -1.219)"/>
      <path id="パス_103" data-name="パス 103" d="M231.016,16.447,215.1,0h-.532V24.158h3.8V8.28l15.915,16.371h.532V20.338" transform="translate(-143.2 0)"/>
      <path id="パス_104" data-name="パス 104" d="M295.218,4.866h2.621c6.875,0,10.1,3.874,10.1,8.7s-3.229,8.7-10.1,8.7h-2.621V7.9l-3.8-.013V25.377h6.039c10.142,0,14.244-5.318,14.244-11.775,0-6.5-4.1-11.775-14.244-11.775H291.42V4.866" transform="translate(-194.489 -1.219)"/>
      <path id="パス_105" data-name="パス 105" d="M364.96,1.827h3.8V22.262h9.534l-.759,3.115H364.96Z" transform="translate(-243.568 -1.219)"/>
      <path id="パス_106" data-name="パス 106" d="M424.048,24.995c-6.761,0-12.155-4.406-12.155-12.117C411.893,5.205,417.287.8,424.048.8S436.2,5.205,436.2,12.916c0,7.672-5.394,12.079-12.155,12.079m0-21.043c-4.52,0-8.242,3.3-8.242,8.926,0,5.736,3.722,8.926,8.242,8.926s8.242-3.19,8.242-8.888c0-5.66-3.722-8.964-8.242-8.964" transform="translate(-274.891 -0.533)"/>
      <path id="パス_107" data-name="パス 107" d="M506.3,25.033c-7.027,0-12.193-4.406-12.193-12.079,0-7.6,5.394-12.041,12.573-12.041a16.661,16.661,0,0,1,8.395,2.431l-.266,3.229a16.325,16.325,0,0,0-8.053-2.621c-4.938,0-8.85,3.267-8.85,9,0,5.773,3.684,9.078,8.432,9.078a12.21,12.21,0,0,0,5.622-1.367V11.777h3.8V21.956a16.185,16.185,0,0,1-9.458,3.077" transform="translate(-329.762 -0.609)"/>
    </g>
  </g>
</svg>
