<svg id="レイヤー_1" data-name="レイヤー 1" xmlns="http://www.w3.org/2000/svg" viewBox="0 0 330.42 321.77"><defs><style>.cls-1,.cls-2{fill:none;stroke:#454545;stroke-miterlimit:10;stroke-width:4px;}.cls-1{stroke-linecap:round;}</style></defs><path class="cls-1" d="M128.52,19.46c-10.73,0-19.2,7.91-25.79,15.62S94.64,51,93.88,62.38,100.07,80,99,84.32c-.35,1.45,1.88,4,1.15,6.94-.35,1.38-5.27,2.32-4.55,14.11s15.88,21.1,15.88,21.1,10,33.6,9.68,46,0,26.55-9,36.15S46.51,242,38,247.6,21.15,265.48,14.88,277,2,319.77,2,319.77"/><path class="cls-1" d="M133,13.81c11.48-10.52,42.35-15.24,58.16-9s36.71,29.36,43.48,40.09,6,41.86,5.08,44.05S233,94.57,233,94.57s7.9,4,6.77,15.24-16.37,16.66-16.37,16.66-13.8,34.39-11.86,51.11,2.82,16.25,12.42,29.24,33.45,16.91,46.72,21.71,29.48,16.43,40.25,34.88,17.5,41.89,17.5,55.91"/><path class="cls-1" d="M132,40.24s-9.38,4.57-12.49,7.46-9.79,13.17-9.79,13.17L99.11,82.93"/><path class="cls-1" d="M136.8,39c34.82-10.92,61.74,13.74,64,14.87s21.46,23.15,22.59,24.84,7.24,15.13,7.24,15.13"/><path class="cls-1" d="M165.22,109.81c-.56,1.7-2.26,11.86-3.95,13S150.5,127.32,150.5,133s14.16,5.08,14.16,5.08"/><path class="cls-1" d="M154.31,157.57a32.69,32.69,0,0,0,10.16,1.56,24.14,24.14,0,0,0,9-1.41"/><circle class="cls-2" cx="141.22" cy="89.56" r="15.81"/><circle class="cls-2" cx="190.07" cy="89.56" r="15.81"/><path class="cls-2" d="M157,89.56c.66.11,9-4.74,18.08,1.7"/><path class="cls-2" d="M112.14,208.64s17.79,29.64,58.17,29.64S224,206.82,224,206.82"/><path d="M433.18-26.85"/></svg>