<svg id="グループ_41" data-name="グループ 41" xmlns="http://www.w3.org/2000/svg" xmlns:xlink="http://www.w3.org/1999/xlink" width="194.215" height="195" viewBox="0 0 194.215 195">
  <defs>
    <clipPath id="clip-path">
      <rect id="長方形_270" data-name="長方形 270" width="194.215" height="195" fill="none"/>
    </clipPath>
  </defs>
  <g id="グループ_40" data-name="グループ 40" clip-path="url(#clip-path)">
    <path id="パス_31" data-name="パス 31" d="M118.919,95.858c-2.465-4.109-6.862-22.866-6.862-22.866s-1.965-7.819-1.69-13.407,3.2-15.619,3.451-20.544-1.327-21.531-1.545-22.9c3.89-2.082,5.819-8.985,4.066-11.176s-9.271.219-10.969.986C101.809,5.9,97.192.5,90.234.5a46.373,46.373,0,0,0-19.6,4.711c-.877-1.15-6.42-3.306-9.762.036s3.227,9.935,5.692,11.195c-.247.858-10.04,31.464-13.246,44.959-.254,1.067-5.071,17.673-5.234,18.5a266.573,266.573,0,0,0-5.811,26.253c-2.229,13.634-1.508,23.778-.816,26.192,1.384,4.828,2.849,13.253,9.581,18.731" transform="translate(-17.039 -0.209)" fill="#fff"/>
    <path id="パス_32" data-name="パス 32" d="M118.919,95.858c-2.465-4.109-6.862-22.866-6.862-22.866s-1.965-7.819-1.69-13.407,3.2-15.619,3.451-20.544-1.327-21.531-1.545-22.9c3.89-2.082,5.819-8.985,4.066-11.176s-9.271.219-10.969.986C101.809,5.9,97.192.5,90.234.5a46.373,46.373,0,0,0-19.6,4.711c-.877-1.15-6.42-3.306-9.762.036s3.227,9.935,5.692,11.195c-.247.858-10.04,31.464-13.246,44.959-.254,1.067-5.071,17.673-5.234,18.5a266.573,266.573,0,0,0-5.811,26.253c-2.229,13.634-1.508,23.778-.816,26.192,1.384,4.828,2.849,13.253,9.581,18.731" transform="translate(-17.039 -0.209)" fill="none" stroke="#000" stroke-miterlimit="10" stroke-width="1"/>
    <path id="パス_33" data-name="パス 33" d="M160.406,236.4c-2.1,3.369-6.685,4.466-9.205,4.466" transform="translate(-63.188 -98.796)" fill="none" stroke="#000" stroke-miterlimit="10" stroke-width="1"/>
    <path id="パス_34" data-name="パス 34" d="M86.122,14.379c-.478.119-2.81-.738-3.309.318S84.307,18.3,84.307,18.3" transform="translate(-34.575 -5.919)" fill="none" stroke="#000" stroke-linecap="round" stroke-miterlimit="10" stroke-width="1"/>
    <path id="パス_35" data-name="パス 35" d="M156.607,13.674c.33-.076,3.238-1.6,4.116-.27s-2.051,3.575-2.051,3.575" transform="translate(-65.448 -5.374)" fill="none" stroke="#000" stroke-linecap="round" stroke-miterlimit="10" stroke-width="1"/>
    <path id="パス_36" data-name="パス 36" d="M145.262,36.317c-.9,0-2.224-.3-2.224-1.419s1.7-1.739,2.219-1.739,1.753.918,1.534,1.623-.625,1.536-1.529,1.536" transform="translate(-59.777 -13.857)"/>
    <path id="パス_37" data-name="パス 37" d="M111.127,31.815c-.927,0-2,.938-2,1.568,0,1.509.523,1.972,2.4,1.972a2.02,2.02,0,0,0,2.09-1.4c.119-.76-1.568-2.138-2.494-2.138" transform="translate(-45.607 -13.296)"/>
    <path id="パス_38" data-name="パス 38" d="M129.554,53.632c1.917,0,3.757-2.5,3.757-5.44a3.7,3.7,0,0,0-3.835-3.024c-3.649,0-4.931,2.506-4.931,3.11a5.068,5.068,0,0,0,5.009,5.354" transform="translate(-52.049 -18.876)"/>
    <path id="パス_39" data-name="パス 39" d="M133.245,64.97a6.735,6.735,0,0,1-3.723,1.348,7.434,7.434,0,0,1-4.58-1.637" transform="translate(-52.214 -27.031)" fill="none" stroke="#000" stroke-miterlimit="10" stroke-width="1"/>
    <path id="パス_40" data-name="パス 40" d="M145.354,80.844s.27.8-.579,2.639" transform="translate(-60.503 -33.786)" fill="none" stroke="#000" stroke-linecap="round" stroke-miterlimit="10" stroke-width="0.5"/>
    <path id="パス_41" data-name="パス 41" d="M153.694,74.223a5.054,5.054,0,0,1-.341,3.568" transform="translate(-64.088 -31.019)" fill="none" stroke="#000" stroke-linecap="round" stroke-miterlimit="10" stroke-width="0.5"/>
    <path id="パス_42" data-name="パス 42" d="M161.435,67.289a3.225,3.225,0,0,1-.289,2.341" transform="translate(-67.345 -28.121)" fill="none" stroke="#000" stroke-linecap="round" stroke-miterlimit="10" stroke-width="0.5"/>
    <path id="パス_43" data-name="パス 43" d="M117.547,79.939a6.471,6.471,0,0,0,1.207,4.025" transform="translate(-49.122 -33.407)" fill="none" stroke="#000" stroke-linecap="round" stroke-miterlimit="10" stroke-width="0.5"/>
    <path id="パス_44" data-name="パス 44" d="M125.331,84.955a9.193,9.193,0,0,0,.616,2.465" transform="translate(-52.377 -35.504)" fill="none" stroke="#000" stroke-linecap="round" stroke-miterlimit="10" stroke-width="0.5"/>
    <path id="パス_45" data-name="パス 45" d="M139.632,84.079a4.277,4.277,0,0,1-.318,2.115" transform="translate(-58.221 -35.137)" fill="none" stroke="#000" stroke-linecap="round" stroke-miterlimit="10" stroke-width="0.5"/>
    <path id="パス_46" data-name="パス 46" d="M109.762,75.572s0,2.661.968,3.442" transform="translate(-45.871 -31.582)" fill="none" stroke="#000" stroke-linecap="round" stroke-miterlimit="10" stroke-width="0.5"/>
    <path id="パス_47" data-name="パス 47" d="M96.39,68.567a4.433,4.433,0,0,0,.546,3.061" transform="translate(-40.253 -28.655)" fill="none" stroke="#000" stroke-linecap="round" stroke-miterlimit="10" stroke-width="0.5"/>
    <path id="パス_48" data-name="パス 48" d="M85.11,57.318s-.179,2.186.75,2.78" transform="translate(-35.563 -23.954)" fill="none" stroke="#000" stroke-linecap="round" stroke-miterlimit="10" stroke-width="0.5"/>
    <path id="パス_49" data-name="パス 49" d="M102.095,74.777a2.265,2.265,0,0,0,.318,1.391" transform="translate(-42.663 -31.25)" fill="none" stroke="#000" stroke-linecap="round" stroke-miterlimit="10" stroke-width="0.5"/>
    <path id="パス_50" data-name="パス 50" d="M132.987,87.712s.045.632.045,1.263" transform="translate(-55.577 -36.656)" fill="none" stroke="#000" stroke-linecap="round" stroke-miterlimit="10" stroke-width="0.5"/>
    <path id="パス_51" data-name="パス 51" d="M157.113,72.338s.228.317-.045,1.263" transform="translate(-65.64 -30.231)" fill="none" stroke="#000" stroke-linecap="round" stroke-miterlimit="10" stroke-width="0.5"/>
    <path id="パス_52" data-name="パス 52" d="M149.494,79.76s.228.317-.045,1.263" transform="translate(-62.456 -33.333)" fill="none" stroke="#000" stroke-linecap="round" stroke-miterlimit="10" stroke-width="0.5"/>
    <path id="パス_53" data-name="パス 53" d="M91.09,65.013a2.085,2.085,0,0,0,.4,1.263" transform="translate(-38.067 -27.17)" fill="none" stroke="#000" stroke-linecap="round" stroke-miterlimit="10" stroke-width="0.5"/>
    <path id="パス_54" data-name="パス 54" d="M133.17,44.414c1.234,4.04,1.093,3.016,1.093,8.437s-5.086,9.506-9.029,9.506-7.714-4.695-7.714-10.116.247-4.759.986-7.718" transform="translate(-49.112 -18.561)" fill="none" stroke="#000" stroke-miterlimit="10" stroke-width="0.826"/>
    <path id="パス_55" data-name="パス 55" d="M229.313,225.578,181,236.207v1.983l48.311-10.975Z" transform="translate(-75.643 -94.271)" fill="#fff"/>
    <path id="パス_56" data-name="パス 56" d="M229.313,225.578,181,236.207v1.983l48.311-10.975Z" transform="translate(-75.643 -94.271)" fill="none" stroke="#000" stroke-miterlimit="10" stroke-width="1"/>
    <path id="パス_57" data-name="パス 57" d="M160.056,164.32s9.213,16.353,14.226,20.708,8.682,2.884,8.682,2.884,3.756,6.041,3.592,6.484-1.683,4.6-3.656,4.438-5.82,3-8.943,1.632-7.845-4.65-8.369-4.809-8.376-5.287-11.286-7.505-13.846-15.3-15.1-19.649" transform="translate(-58.176 -68.671)" fill="#fff"/>
    <path id="パス_58" data-name="パス 58" d="M160.056,164.32s9.213,16.353,14.226,20.708,8.682,2.884,8.682,2.884,3.756,6.041,3.592,6.484-1.683,4.6-3.656,4.438-5.82,3-8.943,1.632-7.845-4.65-8.369-4.809-8.376-5.287-11.286-7.505-13.846-15.3-15.1-19.649" transform="translate(-58.176 -68.671)" fill="none" stroke="#000" stroke-linecap="round" stroke-miterlimit="10" stroke-width="1"/>
    <path id="パス_59" data-name="パス 59" d="M122.837,232.609l-.026-.576L165.7,224.07l.075,0,29.655,2.233.04.575-40.149,8.755-.089.006Z" transform="translate(-51.324 -93.639)" fill="#fff"/>
    <path id="パス_60" data-name="パス 60" d="M165.713,224.146l29.655,2.234-40.149,8.755-32.394-3.025Zm.044-.58-.15.008-42.888,7.964.052,1.151,32.394,3.026.178-.011,40.149-8.755-.08-1.15Z" transform="translate(-51.286 -93.431)"/>
    <path id="パス_61" data-name="パス 61" d="M240.134,167.894l-47.241,4.881a.554.554,0,0,0-.5.361l-9.83,38.966c-.111.363.28.69.71.594l45.619-10.171a.537.537,0,0,0,.4-.335l11.437-33.676c.111-.328-.2-.651-.6-.619" transform="translate(-76.288 -70.164)" fill="#fff"/>
    <path id="パス_62" data-name="パス 62" d="M240.134,167.894l-47.241,4.881a.554.554,0,0,0-.5.361l-9.83,38.966c-.111.363.28.69.71.594l45.619-10.171a.537.537,0,0,0,.4-.335l11.437-33.676C240.843,168.185,240.531,167.862,240.134,167.894Z" transform="translate(-76.288 -70.164)" fill="none" stroke="#000" stroke-linecap="round" stroke-miterlimit="10" stroke-width="1"/>
    <path id="パス_63" data-name="パス 63" d="M180.737,216.241a1.435,1.435,0,0,0,.279.1.517.517,0,0,0,.621-.388l9.865-38.925a.544.544,0,0,0-.188-.563.807.807,0,0,0-.507-.183.506.506,0,0,0-.468.4c-.861,3.4-8.918,35.2-9.871,38.949a.534.534,0,0,0,.27.614" transform="translate(-75.412 -73.67)" fill="#fff"/>
    <path id="パス_64" data-name="パス 64" d="M180.737,216.241a1.435,1.435,0,0,0,.279.1.517.517,0,0,0,.621-.388l9.865-38.925a.544.544,0,0,0-.188-.563.807.807,0,0,0-.507-.183.506.506,0,0,0-.468.4c-.861,3.4-8.918,35.2-9.871,38.949A.534.534,0,0,0,180.737,216.241Z" transform="translate(-75.412 -73.67)" fill="none" stroke="#000" stroke-miterlimit="10" stroke-width="1"/>
    <line id="線_13" data-name="線 13" y1="4.881" x2="48.734" transform="translate(115.112 97.731)" fill="none" stroke="#000" stroke-linecap="round" stroke-miterlimit="10" stroke-width="1"/>
    <path id="パス_65" data-name="パス 65" d="M232.545,251.059c4.933,1.153,8.422-.069,11.564-1.55a18.411,18.411,0,0,0,8.369-7.055c1.972-3.4,2.345-6.281,2.6-10.208s.011-10.987-5.093-11.006a7.666,7.666,0,0,0-6.969,5.245c-1.785,4.94-1.623,8.73.913,12.581" transform="translate(-97.183 -92.458)" fill="#fff"/>
    <path id="パス_66" data-name="パス 66" d="M232.545,251.059c4.933,1.153,8.422-.069,11.564-1.55a18.411,18.411,0,0,0,8.369-7.055c1.972-3.4,2.345-6.281,2.6-10.208s.011-10.987-5.093-11.006a7.666,7.666,0,0,0-6.969,5.245c-1.785,4.94-1.623,8.73.913,12.581" transform="translate(-97.183 -92.458)" fill="none" stroke="#000" stroke-miterlimit="10" stroke-width="0.857"/>
    <path id="パス_67" data-name="パス 67" d="M58.413,245.908c6.733,5.479,12.848,9.588,30.489,12s29.851-.242,41.767.657,22.357,4.041,27.562,1.412,6.684-7.78,7.232-11.834-2.076-13.539-4.271-16.2-5.8-5.022-9.1-4.44-5.26,4.654-5.7,8.194-.657,9.4,4.383,12.743" transform="translate(-24.411 -95.036)" fill="#fff"/>
    <path id="パス_68" data-name="パス 68" d="M58.413,245.908c6.733,5.479,12.848,9.588,30.489,12s29.851-.242,41.767.657,22.357,4.041,27.562,1.412,6.684-7.78,7.232-11.834-2.076-13.539-4.271-16.2-5.8-5.022-9.1-4.44-5.26,4.654-5.7,8.194-.657,9.4,4.383,12.743" transform="translate(-24.411 -95.036)" fill="none" stroke="#000" stroke-miterlimit="10" stroke-width="1"/>
    <path id="パス_69" data-name="パス 69" d="M156.538,243.184l-33.655-3.254V237.4l33.655,3.117Z" transform="translate(-51.354 -99.213)" fill="#fff"/>
    <path id="パス_70" data-name="パス 70" d="M156.538,243.184l-33.655-3.254V237.4l33.655,3.117Z" transform="translate(-51.354 -99.213)" fill="none" stroke="#000" stroke-miterlimit="10" stroke-width="1"/>
    <path id="パス_71" data-name="パス 71" d="M58.07,143.426c-1.53,21.623-.678,28.807,22.681,46.014,8.6,6.337,28.752,6.987,32.582,6.987s9.688-.89,12.237-2.084,2.761-3.788-1.043-6.61c-3.065-2.274-18.384-3.519-27.587-16.326-5.26-6.451-6.246-9.245-8.013-14.34" transform="translate(-24.069 -59.939)" fill="#fff"/>
    <path id="パス_72" data-name="パス 72" d="M58.07,143.426c-1.53,21.623-.678,28.807,22.681,46.014,8.6,6.337,28.752,6.987,32.582,6.987s9.688-.89,12.237-2.084,2.761-3.788-1.043-6.61c-3.065-2.274-18.384-3.519-27.587-16.326-5.26-6.451-6.246-9.245-8.013-14.34" transform="translate(-24.069 -59.939)" fill="none" stroke="#000" stroke-miterlimit="10" stroke-width="1"/>
    <path id="パス_73" data-name="パス 73" d="M151.22,230.81a2.358,2.358,0,0,0,.139-3.513,8.809,8.809,0,0,0-5.579-1.571" transform="translate(-60.923 -94.323)" fill="none" stroke="#000" stroke-linecap="round" stroke-miterlimit="10" stroke-width="1"/>
    <path id="パス_74" data-name="パス 74" d="M168.845,226.377a3.956,3.956,0,0,0-1.464-4.868c-.928-.7-3.1-1.851-4.518-1.776" transform="translate(-68.062 -91.827)" fill="#fff"/>
    <path id="パス_75" data-name="パス 75" d="M168.845,226.377a3.956,3.956,0,0,0-1.464-4.868c-.928-.7-3.1-1.851-4.518-1.776" transform="translate(-68.062 -91.827)" fill="none" stroke="#000" stroke-linecap="round" stroke-miterlimit="10" stroke-width="1"/>
    <path id="パス_76" data-name="パス 76" d="M163.853,227.962a4.72,4.72,0,0,0-.356-4c-.712-1.355-2.948-2.42-5.15-2.744" transform="translate(-66.175 -92.449)" fill="#fff"/>
    <path id="パス_77" data-name="パス 77" d="M163.853,227.962a4.72,4.72,0,0,0-.356-4c-.712-1.355-2.948-2.42-5.15-2.744" transform="translate(-66.175 -92.449)" fill="none" stroke="#000" stroke-linecap="round" stroke-miterlimit="10" stroke-width="1"/>
    <path id="パス_78" data-name="パス 78" d="M157.148,229.16c.822-.47,1.068-3.087-.3-4.344s-3.293-1.675-5.646-1.8" transform="translate(-63.188 -93.203)" fill="#fff"/>
    <path id="パス_79" data-name="パス 79" d="M157.148,229.16c.822-.47,1.068-3.087-.3-4.344s-3.293-1.675-5.646-1.8" transform="translate(-63.188 -93.203)" fill="none" stroke="#000" stroke-linecap="round" stroke-miterlimit="10" stroke-width="1"/>
    <path id="パス_80" data-name="パス 80" d="M158.1,235.468s24.8,7.022,26.658,9.382-8,4.991-18.846,7.072-25.382,4.164-53.141,4.164a324.161,324.161,0,0,1-64.756-6.6c-15.142-3.017-36.9-3.427-35.357-20.536-4.334,1.824-9.287,7.223-10.928,13S-.3,258.4,3.03,266.439s6.78,10.113,23.578,15.183,32.032,5.581,59.658,7.992,63.65-1.013,83.7-7.231,22.352-13.166,24-23.032-9.2-14.5-9.2-14.5" transform="translate(-0.209 -95.681)" fill="#fff"/>
    <path id="パス_81" data-name="パス 81" d="M158.1,235.468s24.8,7.022,26.658,9.382-8,4.991-18.846,7.072-25.382,4.164-53.141,4.164a324.161,324.161,0,0,1-64.756-6.6c-15.142-3.017-36.9-3.427-35.357-20.536-4.334,1.824-9.287,7.223-10.928,13S-.3,258.4,3.03,266.439s6.78,10.113,23.578,15.183,32.032,5.581,59.658,7.992,63.65-1.013,83.7-7.231,22.352-13.166,24-23.032-9.2-14.5-9.2-14.5" transform="translate(-0.209 -95.681)" fill="none" stroke="#000" stroke-miterlimit="10" stroke-width="1"/>
    <path id="パス_82" data-name="パス 82" d="M215.713,276.41l13.833-1.644-14.71,17.641" transform="translate(-89.782 -114.828)" fill="#fff"/>
    <path id="パス_83" data-name="パス 83" d="M215.808,229.5A4.364,4.364,0,0,0,217,233.114" transform="translate(-90.172 -95.91)" fill="none" stroke="#000" stroke-linecap="round" stroke-miterlimit="10" stroke-width="1"/>
    <path id="パス_84" data-name="パス 84" d="M211.895,234.033a3.64,3.64,0,0,0,1.144,3.292" transform="translate(-88.535 -97.805)" fill="none" stroke="#000" stroke-linecap="round" stroke-miterlimit="10" stroke-width="1"/>
    <path id="パス_85" data-name="パス 85" d="M220.91,227.923s.02,2.506,1.4,3.69" transform="translate(-92.321 -95.251)" fill="none" stroke="#000" stroke-linecap="round" stroke-miterlimit="10" stroke-width="1"/>
    <path id="パス_86" data-name="パス 86" d="M227.67,229.5a6.026,6.026,0,0,0,1.144,3.459" transform="translate(-95.146 -95.91)" fill="none" stroke="#000" stroke-linecap="round" stroke-miterlimit="10" stroke-width="1"/>
    <path id="パス_87" data-name="パス 87" d="M260.335,221.753s-.343,1.151-.96,3.064" transform="translate(-108.396 -92.673)" fill="none" stroke="#000" stroke-linecap="round" stroke-miterlimit="10" stroke-width="1"/>
    <path id="パス_88" data-name="パス 88" d="M255.267,223.251s-.492,1.047-1.135,2.708" transform="translate(-106.204 -93.299)" fill="none" stroke="#000" stroke-linecap="round" stroke-miterlimit="10" stroke-width="1"/>
    <path id="パス_89" data-name="パス 89" d="M264.68,222.475s-.548,1.619-1.055,3.144" transform="translate(-110.172 -92.975)" fill="none" stroke="#000" stroke-linecap="round" stroke-miterlimit="10" stroke-width="1"/>
    <path id="パス_90" data-name="パス 90" d="M268.776,226.128s-.442,1.254-1.005,2.739" transform="translate(-111.904 -94.501)" fill="none" stroke="#000" stroke-linecap="round" stroke-miterlimit="10" stroke-width="1"/>
    <path id="パス_91" data-name="パス 91" d="M21.389,227.118a28.3,28.3,0,0,1,11.97-2.554" transform="translate(-8.939 -93.848)" fill="none" stroke="#000" stroke-miterlimit="10" stroke-width="1"/>
  </g>
</svg>
